<svg width="20" height="20" viewBox="0 0 20 20" fill="none" xmlns="http://www.w3.org/2000/svg">
<path d="M1 1L1.26491 1.0883C2.58495 1.52832 3.24497 1.74832 3.62248 2.2721C4 2.79587 4 3.49159 4 4.88304V7.5C4 10.3284 4 11.7426 4.87868 12.6213C5.75736 13.5 7.17157 13.5 10 13.5H18" stroke="#34A853" stroke-width="1.5" stroke-linecap="round"/>
<path d="M6.5 16C7.32843 16 8 16.6716 8 17.5C8 18.3284 7.32843 19 6.5 19C5.67157 19 5 18.3284 5 17.5C5 16.6716 5.67157 16 6.5 16Z" stroke="#34A853" stroke-width="1.5"/>
<path d="M15.5 16.0001C16.3284 16.0001 17 16.6716 17 17.5001C17 18.3285 16.3284 19.0001 15.5 19.0001C14.6716 19.0001 14 18.3285 14 17.5001C14 16.6716 14.6716 16.0001 15.5 16.0001Z" stroke="#34A853" stroke-width="1.5"/>
<path d="M4 4H15.4504C17.5054 4 18.5328 4 18.9775 4.67426C19.4221 5.34853 19.0173 6.29294 18.2078 8.1818L17.7792 9.1818C17.4013 10.0636 17.2123 10.5045 16.8366 10.7523C16.4609 11 15.9812 11 15.0218 11H4" stroke="#34A853" stroke-width="1.5"/>
</svg>
