<svg width="24" height="25" viewBox="0 0 24 25" fill="none" xmlns="http://www.w3.org/2000/svg">
<rect width="24" height="24" transform="translate(0 0.5)" fill="white" fill-opacity="0.01"/>
<path fill-rule="evenodd" clip-rule="evenodd" d="M22 12.5C22 18.0228 17.5228 22.5 12 22.5C6.47715 22.5 2 18.0228 2 12.5C2 6.97715 6.47715 2.5 12 2.5C17.5228 2.5 22 6.97715 22 12.5ZM8.00042 11.5025C8.00042 11.2368 8.10519 10.9819 8.292 10.793C8.38404 10.7002 8.49354 10.6265 8.6142 10.5762C8.73486 10.5259 8.86428 10.5001 8.995 10.5001C9.12572 10.5001 9.25514 10.5259 9.3758 10.5762C9.49646 10.6265 9.60596 10.7002 9.698 10.793L12.005 13.12L14.303 10.803C14.3948 10.7098 14.5043 10.6358 14.625 10.5853C14.7456 10.5348 14.8752 10.5088 15.006 10.5088C15.1368 10.5088 15.2664 10.5348 15.387 10.5853C15.5077 10.6358 15.6172 10.7098 15.709 10.803C15.8956 10.992 16.0002 11.2469 16.0002 11.5125C16.0002 11.7781 15.8956 12.033 15.709 12.222L12.779 15.177C12.566 15.392 12.289 15.499 12.01 15.499C11.731 15.499 11.449 15.392 11.231 15.177L8.292 12.212C8.10519 12.0231 8.00042 11.7682 8.00042 11.5025Z" fill="#1A542A"/>
</svg>
