<svg width="50" height="50" viewBox="0 0 50 50" fill="none" xmlns="http://www.w3.org/2000/svg">
<rect width="49.6081" height="49.6081" transform="matrix(0 -1 1 0 0.391846 49.6082)" fill="white" fill-opacity="0.01"/>
<path fill-rule="evenodd" clip-rule="evenodd" d="M25.1959 4.134C36.6117 4.134 45.866 13.3883 45.866 24.8041C45.866 36.2198 36.6117 45.4741 25.1959 45.4741C13.7802 45.4741 4.52588 36.2198 4.52588 24.8041C4.52588 13.3883 13.7802 4.134 25.1959 4.134ZM23.1341 33.0712C22.585 33.0712 22.058 32.8547 21.6676 32.4685C21.4757 32.2783 21.3234 32.0519 21.2195 31.8025C21.1156 31.5531 21.0621 31.2856 21.0621 31.0154C21.0621 30.7452 21.1156 30.4777 21.2195 30.2283C21.3234 29.9789 21.4757 29.7526 21.6676 29.5623L26.4775 24.7937L21.6882 20.0437C21.4956 19.8539 21.3427 19.6277 21.2383 19.3783C21.1339 19.1288 21.0801 18.8611 21.0801 18.5906C21.0801 18.3202 21.1339 18.0525 21.2383 17.803C21.3427 17.5536 21.4956 17.3274 21.6882 17.1375C22.0789 16.7519 22.6058 16.5357 23.1548 16.5357C23.7037 16.5357 24.2306 16.7519 24.6213 17.1375L30.7293 23.1939C31.1737 23.6341 31.3949 24.2067 31.3949 24.7834C31.3949 25.3601 31.1737 25.943 30.7293 26.3936L24.6006 32.4685C24.2102 32.8547 23.6832 33.0712 23.1341 33.0712Z" fill="#1A542A"/>
</svg>
