<svg width="51" height="50" viewBox="0 0 51 50" fill="none" xmlns="http://www.w3.org/2000/svg">
<rect width="49.6081" height="49.6081" transform="matrix(0 -1 -1 0 50.3918 49.6082)" fill="white" fill-opacity="0.01"/>
<path fill-rule="evenodd" clip-rule="evenodd" d="M25.5878 4.134C14.172 4.134 4.91769 13.3883 4.91769 24.8041C4.91769 36.2198 14.172 45.4741 25.5878 45.4741C37.0035 45.4741 46.2578 36.2198 46.2578 24.8041C46.2578 13.3883 37.0035 4.134 25.5878 4.134ZM27.6496 33.0712C28.1987 33.0712 28.7257 32.8547 29.1161 32.4685C29.308 32.2783 29.4603 32.0519 29.5642 31.8025C29.6681 31.5531 29.7216 31.2856 29.7216 31.0154C29.7216 30.7452 29.6681 30.4777 29.5642 30.2283C29.4603 29.9789 29.308 29.7526 29.1161 29.5623L24.3062 24.7937L29.0955 20.0437C29.2881 19.8539 29.441 19.6277 29.5454 19.3783C29.6498 19.1288 29.7036 18.8611 29.7036 18.5906C29.7036 18.3202 29.6498 18.0525 29.5454 17.803C29.441 17.5536 29.2881 17.3274 29.0955 17.1375C28.7048 16.7519 28.1779 16.5357 27.6289 16.5357C27.08 16.5357 26.5531 16.7519 26.1624 17.1375L20.0544 23.1939C19.61 23.6341 19.3888 24.2067 19.3888 24.7834C19.3888 25.3601 19.61 25.943 20.0544 26.3936L26.183 32.4685C26.5735 32.8547 27.1005 33.0712 27.6496 33.0712Z" fill="#1A542A"/>
</svg>
